<svg width="16" height="16" viewBox="0 0 16 16" fill="none" xmlns="http://www.w3.org/2000/svg">
<rect width="16" height="16" fill="#1E1E1E"/>
<g id="Abroad Sathi-logo">
<path d="M-820 -115C-820 -116.105 -819.105 -117 -818 -117H762C763.105 -117 764 -116.105 764 -115V895C764 896.105 763.105 897 762 897H-818C-819.105 897 -820 896.105 -820 895V-115Z" fill="#444444"/>
<path d="M-818 -116H762V-118H-818V-116ZM763 -115V895H765V-115H763ZM762 896H-818V898H762V896ZM-819 895V-115H-821V895H-819ZM-818 896C-818.552 896 -819 895.552 -819 895H-821C-821 896.657 -819.657 898 -818 898V896ZM763 895C763 895.552 762.552 896 762 896V898C763.657 898 765 896.657 765 895H763ZM762 -116C762.552 -116 763 -115.552 763 -115H765C765 -116.657 763.657 -118 762 -118V-116ZM-818 -118C-819.657 -118 -821 -116.657 -821 -115H-819C-819 -115.552 -818.552 -116 -818 -116V-118Z" fill="white" fill-opacity="0.1"/>
<g id="FAVICON">
<circle id="Ellipse 1" cx="8" cy="8" r="8" fill="white"/>
<g id="Group 904">
<path id="Vector" d="M3.35888 3.91473C3.35888 3.91473 5.00259 8.88085 8.01899 9.79014C8.01899 9.79014 11.0747 8.75408 12.6485 3.91473C12.6485 3.91473 13.4704 8.55299 8.37746 12.3213C8.37746 12.3213 8.02773 12.9202 8.01899 13.1388C8.01024 13.3574 7.95341 12.7191 7.63866 12.3737C7.3239 12.0284 2.98292 8.91583 3.35888 3.91473Z" fill="url(#paint0_linear_49_235)"/>
<path id="Vector_2" d="M8.01467 8.92461C8.82107 8.92461 9.47478 8.28656 9.47478 7.49948C9.47478 6.7124 8.82107 6.07434 8.01467 6.07434C7.20828 6.07434 6.55457 6.7124 6.55457 7.49948C6.55457 8.28656 7.20828 8.92461 8.01467 8.92461Z" fill="url(#paint1_linear_49_235)"/>
<path id="Vector_3" d="M4.92834 6.07869L6.17862 7.05355C6.17862 7.05355 6.58518 5.57158 8.01905 5.6459C8.01905 5.6459 9.32179 5.53661 9.82452 7.05355L11.0398 6.07869C11.0398 6.07869 8.78408 5.09945 8.01468 3.5694C8.01468 3.5694 5.82452 6.02186 4.92834 6.07869Z" fill="url(#paint2_linear_49_235)"/>
<path id="Vector_4" d="M10.03 6.81312V7.59127H10.2355L10.1349 6.73444L10.03 6.81312Z" fill="url(#paint3_linear_49_235)"/>
<path id="Vector_5" d="M6.64639 2.89618L6.58956 3.14099H6.34912L6.55459 3.29399L6.44092 3.52132L6.64639 3.35083L6.84311 3.46886L6.76879 3.28525L6.95677 3.14973H6.72945L6.64639 2.89618Z" fill="url(#paint4_linear_49_235)"/>
<path id="Vector_6" d="M8.01025 2L7.91408 2.43279H7.49878L7.84851 2.70383L7.66053 3.10164L8.01025 2.8L8.34687 3.00546L8.22009 2.68634L8.53922 2.45027H8.15452L8.01025 2Z" fill="url(#paint5_linear_49_235)"/>
<path id="Vector_7" d="M9.42666 2.89618L9.36983 3.14099H9.12939L9.33486 3.29399L9.2212 3.52132L9.42666 3.35083L9.62338 3.46886L9.54907 3.28525L9.73704 3.14973H9.50972L9.42666 2.89618Z" fill="url(#paint6_linear_49_235)"/>
<g id="Group">
<path id="Vector_8" d="M2.82561 9.08195L2.93927 8.64042C1.34801 6.98359 1.28681 5.49725 2.98735 5.06446C3.12287 5.02949 3.27151 5.00326 3.42889 4.9814C3.73927 4.94206 4.38189 4.94643 4.83654 4.96829C4.85402 4.96829 4.89337 4.97266 4.94583 4.97266C5.12943 4.97703 5.46604 4.98577 5.5185 4.99015C5.71522 4.91146 5.8114 4.87211 6.12178 4.79779C6.00812 4.77594 5.60156 4.69725 5.40047 4.66228C5.36987 4.6579 5.33927 4.65353 5.32178 4.64916C4.49992 4.5355 3.47697 4.46555 2.89992 4.53987C2.72506 4.56173 2.56331 4.59233 2.41031 4.63167C0.346918 5.15626 0.60047 7.0579 2.82561 9.08195Z" fill="url(#paint7_radial_49_235)"/>
<path id="Vector_9" d="M12.4343 9.21746C12.4299 9.20872 12.4081 9.17812 12.3775 9.14315C12.325 9.0732 12.2507 8.97703 12.1851 8.90271C12.1895 9.04697 12.1939 9.16501 12.1851 9.27429C12.2376 9.34424 12.3163 9.48413 12.3644 9.57593C12.3862 9.61528 12.3993 9.64151 12.4037 9.65025C13.0026 10.9923 12.8277 12.2207 11.748 12.553C11.6343 12.588 11.5119 12.6142 11.3851 12.636C11.1753 12.6666 10.9611 12.6885 10.7425 12.6972C10.725 12.6972 10.7031 12.6972 10.6857 12.6972C10.607 12.6972 10.5239 12.6972 10.4409 12.6972C10.3709 12.6972 10.301 12.6929 10.231 12.6885C9.92938 12.671 9.61899 12.6317 9.30424 12.5617C9.19495 12.5399 9.08129 12.5136 8.972 12.483C8.32063 12.3125 7.63867 12.0371 6.93921 11.6393C6.82992 11.5781 6.71626 11.5082 6.6026 11.4382C6.41025 11.3158 6.21353 11.189 6.01681 11.0492L5.6496 11.0273L5.54468 11.0186C5.87692 11.2634 6.22227 11.4907 6.572 11.6962C6.68566 11.7617 6.79932 11.8273 6.91298 11.8885C7.58184 12.2557 8.27255 12.5442 8.9414 12.7541C9.05069 12.789 9.15561 12.8196 9.26052 12.8503C9.38293 12.8852 9.50096 12.9115 9.619 12.9421C9.70206 12.9595 9.78074 12.977 9.8638 12.9945C10.0387 13.0295 10.2135 13.0557 10.3797 13.0776C10.9042 13.1431 11.3939 13.1475 11.8266 13.0819C11.9709 13.0601 12.1064 13.0295 12.2332 12.9901C13.7152 12.5268 13.6627 10.9311 12.4343 9.21746Z" fill="url(#paint8_radial_49_235)"/>
<path id="Vector_10" d="M6.11743 10.6688C6.11743 10.6688 6.44967 10.5683 6.17863 10.2798C6.17863 10.2798 6.02562 10.1049 5.49666 9.96065C5.55349 9.91256 5.65404 9.82075 5.75458 9.71584L5.88573 9.81201C5.89448 9.81638 5.89885 9.82513 5.90759 9.8295C5.91633 9.83387 5.92071 9.83387 5.92945 9.83824C5.99065 9.85573 6.0606 9.82076 6.07808 9.75518C6.0912 9.71147 6.08245 9.66775 6.05622 9.63715C6.04311 9.61966 6.02562 9.61092 6.00377 9.60218C5.99939 9.60218 5.99502 9.60217 5.99502 9.5978L5.90759 9.54535C6.05622 9.36611 6.16551 9.17376 6.07808 9.06447L6.01688 9.00764C6.01688 9.00764 5.8289 9.34862 4.9983 9.85136C4.95896 9.84699 4.92398 9.83824 4.88464 9.83387C4.78409 9.82075 4.67917 9.80764 4.56551 9.7989C4.56551 9.7989 4.5524 9.7989 4.53491 9.79452C4.48683 9.78578 4.38628 9.77267 4.26825 9.75518C4.18081 9.74207 4.08464 9.72895 3.98846 9.71147C3.89229 9.69835 3.79174 9.68086 3.70868 9.67212L3.90103 9.58469L4.03218 9.52349C4.03218 9.52349 4.04967 9.506 4.05404 9.48851C4.05841 9.47977 4.05404 9.47103 4.04092 9.46666C4.02344 9.46228 3.98846 9.46666 3.92726 9.48851L3.86169 9.51037L3.60377 9.59343L3.41142 9.27868L3.38519 9.23059L3.2453 8.9989C3.2453 8.9989 3.12726 8.77595 3.16223 9.05135C3.16223 9.05135 3.23655 9.43606 3.35021 9.62403L2.73382 9.75081C2.73382 9.75081 2.64202 9.79015 2.77754 9.79452L3.38519 9.79015C3.39393 9.80764 3.40704 9.8295 3.42453 9.85573C3.4289 9.86447 3.43327 9.87321 3.44202 9.88196C3.49448 9.95627 3.58191 10.035 3.70431 10.1137C3.76989 10.1574 3.86169 10.2055 3.99284 10.2623C3.74803 10.2973 3.03546 10.3759 2.19174 10.2973C2.19174 10.2973 1.82016 10.3016 2.48027 10.4852C2.48027 10.4852 2.51961 10.5989 2.54147 10.6601C2.5677 10.7344 2.71633 10.7257 2.72508 10.6514C2.72945 10.612 2.6901 10.5333 2.6901 10.5333C2.90431 10.5683 3.12289 10.577 3.41142 10.5727C3.41142 10.5727 3.50759 10.7344 3.55568 10.7869C3.57754 10.8087 3.60376 10.8175 3.63437 10.8218C3.64748 10.8218 3.65622 10.8218 3.66934 10.8218C3.73491 10.8131 3.79611 10.7781 3.80923 10.7344C3.81797 10.7082 3.81797 10.6776 3.80923 10.6514C3.80486 10.6339 3.79174 10.6208 3.783 10.6033L3.7524 10.5552C3.94038 10.5421 4.14147 10.5202 4.34256 10.4852C4.40814 10.4765 4.47371 10.4634 4.53928 10.4503C4.583 10.4634 4.63109 10.4765 4.67918 10.4896C4.73163 10.5027 4.78409 10.5202 4.84092 10.5333C4.95896 10.5639 5.0901 10.5989 5.22999 10.6295C5.22999 10.6295 5.34803 10.6601 5.50978 10.682C5.69775 10.7082 5.93382 10.7213 6.11743 10.6688Z" fill="url(#paint9_radial_49_235)"/>
</g>
</g>
</g>
</g>
<defs>
<linearGradient id="paint0_linear_49_235" x1="3.33433" y1="8.54885" x2="12.6958" y2="8.54885" gradientUnits="userSpaceOnUse">
<stop stop-color="#293990"/>
<stop offset="1" stop-color="#2D2B6E"/>
</linearGradient>
<linearGradient id="paint1_linear_49_235" x1="6.55295" y1="7.50112" x2="9.47725" y2="7.50112" gradientUnits="userSpaceOnUse">
<stop stop-color="#293990"/>
<stop offset="1" stop-color="#2D2B6E"/>
</linearGradient>
<linearGradient id="paint2_linear_49_235" x1="4.92726" y1="5.31097" x2="11.0392" y2="5.31097" gradientUnits="userSpaceOnUse">
<stop stop-color="#293990"/>
<stop offset="1" stop-color="#2D2B6E"/>
</linearGradient>
<linearGradient id="paint3_linear_49_235" x1="10.0314" y1="7.16211" x2="10.2355" y2="7.16211" gradientUnits="userSpaceOnUse">
<stop stop-color="#293990"/>
<stop offset="1" stop-color="#2D2B6E"/>
</linearGradient>
<linearGradient id="paint4_linear_49_235" x1="6.34778" y1="3.20899" x2="6.95523" y2="3.20899" gradientUnits="userSpaceOnUse">
<stop stop-color="#FBF05F"/>
<stop offset="1" stop-color="#FFCF01"/>
</linearGradient>
<linearGradient id="paint5_linear_49_235" x1="7.49835" y1="2.55107" x2="8.53962" y2="2.55107" gradientUnits="userSpaceOnUse">
<stop stop-color="#FBF05F"/>
<stop offset="1" stop-color="#FFCF01"/>
</linearGradient>
<linearGradient id="paint6_linear_49_235" x1="9.12799" y1="3.20899" x2="9.73544" y2="3.20899" gradientUnits="userSpaceOnUse">
<stop stop-color="#FBF05F"/>
<stop offset="1" stop-color="#FFCF01"/>
</linearGradient>
<radialGradient id="paint7_radial_49_235" cx="0" cy="0" r="1" gradientUnits="userSpaceOnUse" gradientTransform="translate(3.56049 6.79318) scale(2.45779 2.3922)">
<stop stop-color="#FEE31A"/>
<stop offset="0.3275" stop-color="#FEDF19"/>
<stop offset="0.7047" stop-color="#FBD518"/>
<stop offset="1" stop-color="#F8C918"/>
</radialGradient>
<radialGradient id="paint8_radial_49_235" cx="0" cy="0" r="1" gradientUnits="userSpaceOnUse" gradientTransform="translate(9.45 11.0107) scale(3.03846 3.56911)">
<stop stop-color="#FEE31A"/>
<stop offset="0.3275" stop-color="#FEDF19"/>
<stop offset="0.7047" stop-color="#FBD518"/>
<stop offset="1" stop-color="#F8C918"/>
</radialGradient>
<radialGradient id="paint9_radial_49_235" cx="0" cy="0" r="1" gradientUnits="userSpaceOnUse" gradientTransform="translate(4.18588 9.86604) scale(1.63829 1.59457)">
<stop stop-color="#FEE31A"/>
<stop offset="0.3275" stop-color="#FEDF19"/>
<stop offset="0.7047" stop-color="#FBD518"/>
<stop offset="1" stop-color="#F8C918"/>
</radialGradient>
</defs>
</svg>
